<mxfile host="app.diagrams.net" agent="Mozilla/5.0 (Macintosh; Intel Mac OS X 10_15_7) AppleWebKit/605.1.15 (KHTML, like Gecko) Version/18.0 Safari/605.1.15" version="25.0.3">
  <diagram name="Trang-1" id="jR3bchtkgNLcPQu0ofUW">
    <mxGraphModel dx="836" dy="610" grid="1" gridSize="10" guides="1" tooltips="1" connect="1" arrows="1" fold="1" page="1" pageScale="1" pageWidth="827" pageHeight="1169" math="0" shadow="0">
      <root>
        <mxCell id="0" />
        <mxCell id="1" parent="0" />
        <UserObject label="&lt;p style=&quot;margin: 0.0px 0.0px 0.0px 0.0px; font: 12.0px &#39;Times New Roman&#39;; color: #000000&quot;&gt;&lt;b&gt;Individual Project&lt;/b&gt;&lt;/p&gt;&#xa;&lt;ol style=&quot;list-style-type: decimal&quot;&gt;&#xa;&lt;li style=&quot;margin: 0.0px 0.0px 0.0px 0.0px; font: 12.0px &#39;Times New Roman&#39;; color: #000000&quot;&gt;&lt;i&gt;&lt;/i&gt;&lt;b&gt;&lt;i&gt;TicTacToe game system&lt;/i&gt;&lt;/b&gt;&lt;i&gt;&lt;br&gt;&#xa;The code you provided is a &lt;/i&gt;&lt;b&gt;&lt;i&gt;Tic-Tac-Toe game&lt;/i&gt;&lt;/b&gt;&lt;i&gt; implemented using &lt;/i&gt;&lt;b&gt;&lt;i&gt;Java Swing&lt;/i&gt;&lt;/b&gt;&lt;i&gt; for the graphical user interface (GUI). It represents a simple desktop application where two players can play Tic-Tac-Toe on a 3x3 grid..&lt;/i&gt;&lt;/li&gt;&#xa;&lt;/ol&gt;&#xa;&lt;p style=&quot;margin: 0.0px 0.0px 0.0px 0.0px; font: 12.0px &#39;Times New Roman&#39;; color: #000000; min-height: 15.0px&quot;&gt;&lt;br&gt;&lt;/p&gt;&#xa;&lt;p style=&quot;margin: 0.0px 0.0px 0.0px 0.0px; font: 12.0px &#39;Times New Roman&#39;; color: #000000&quot;&gt;&lt;b&gt;Introduction&lt;/b&gt;&lt;/p&gt;&#xa;&lt;p style=&quot;margin: 0.0px 0.0px 12.0px 0.0px; font: 12.0px Times; color: #000000&quot;&gt;Tic-Tac-Toe Game System is a simple Tic Tac Toe game for two players, developed in Java with a graphical interface using Swing. The game has a 3x3 board, players take turns marking &quot;X&quot; and &quot;O&quot; in the empty boxes. The goal is to line up three consecutive marks horizontally, vertically or diagonally.&lt;/p&gt;&#xa;&lt;table cellspacing=&quot;0&quot; cellpadding=&quot;0&quot; style=&quot;border-collapse: collapse&quot;&gt;&#xa;&lt;tbody&gt;&#xa;&lt;tr&gt;&#xa;&lt;td valign=&quot;top&quot; style=&quot;width: 131.0px; height: 74.0px; border-style: solid; border-width: 1.0px 1.0px 1.0px 1.0px; border-color: #000000 #000000 #000000 #000000; padding: 4.0px 4.0px 4.0px 4.0px&quot;&gt;&#xa;&lt;p style=&quot;margin: 0.0px 0.0px 0.0px 14.2px; text-align: center; text-indent: -14.2px; font: 12.0px &#39;Times New Roman&#39;; color: #000000&quot;&gt;&lt;b&gt;Duy Tan University&lt;/b&gt;&lt;/p&gt;&#xa;&lt;p style=&quot;margin: 0.0px 0.0px 0.0px 14.2px; text-align: center; text-indent: -14.2px; font: 12.0px &#39;Times New Roman&#39;; color: #000000&quot;&gt;International School&lt;/p&gt;&#xa;&lt;p style=&quot;margin: 0.0px 0.0px 0.0px 14.2px; text-align: center; text-indent: -14.2px; font: 12.0px &#39;Times New Roman&#39;; color: #000000&quot;&gt;SE-MIS Program&lt;/p&gt;&#xa;&lt;p style=&quot;margin: 0.0px 0.0px 0.0px 0.0px; font: 12.0px Helvetica; min-height: 14.0px&quot;&gt;&lt;br&gt;&lt;/p&gt;&#xa;&lt;/td&gt;&#xa;&lt;td colspan=&quot;2&quot; valign=&quot;top&quot; style=&quot;width: 280.0px; height: 74.0px; border-style: solid; border-width: 1.0px 1.0px 1.0px 1.0px; border-color: #000000 #000000 #000000 #000000; padding: 4.0px 4.0px 4.0px 4.0px&quot;&gt;&#xa;&lt;p style=&quot;margin: 0.0px 0.0px 0.0px 14.2px; text-indent: -14.2px; font: 12.0px &#39;Times New Roman&#39;; color: #000000&quot;&gt;&lt;b&gt;INDIVIDUAL PROJECT&lt;/b&gt;&lt;/p&gt;&#xa;&lt;p style=&quot;margin: 0.0px 0.0px 0.0px 14.2px; text-indent: -14.2px; font: 12.0px &#39;Times New Roman&#39;; color: #000000&quot;&gt;&lt;b&gt;Course: FUNDAMENTALS OF COMPUTING 1&lt;span class=&quot;Apple-converted-space&quot;&gt;&amp;nbsp;&lt;/span&gt;&lt;/b&gt;&lt;/p&gt;&#xa;&lt;p style=&quot;margin: 0.0px 0.0px 0.0px 14.2px; text-indent: -14.2px; font: 12.0px &#39;Times New Roman&#39;; color: #000000&quot;&gt;Class: BIS, FIS&lt;/p&gt;&#xa;&lt;p style=&quot;margin: 0.0px 0.0px 0.0px 14.2px; text-indent: -14.2px; font: 12.0px &#39;Times New Roman&#39;; color: #000000&quot;&gt;Semester …I…….. Academic Year: 2023-2024&lt;/p&gt;&#xa;&lt;p style=&quot;margin: 0.0px 0.0px 0.0px 14.2px; text-indent: -14.2px; font: 12.0px &#39;Times New Roman&#39;; color: #000000&quot;&gt;Duration:&lt;span class=&quot;Apple-converted-space&quot;&gt;&amp;nbsp;&lt;/span&gt;&lt;/p&gt;&#xa;&lt;/td&gt;&#xa;&lt;td valign=&quot;top&quot; style=&quot;width: 52.0px; height: 74.0px; border-style: solid; border-width: 1.0px 1.0px 1.0px 1.0px; border-color: #000000 #000000 #000000 #000000; padding: 4.0px 4.0px 4.0px 4.0px&quot;&gt;&#xa;&lt;p style=&quot;margin: 0.0px 0.0px 0.0px 0.0px; font: 12.0px &#39;Times New Roman&#39;; color: #000000; min-height: 15.0px&quot;&gt;&lt;br&gt;&lt;/p&gt;&#xa;&lt;p style=&quot;margin: 0.0px 0.0px 0.0px 14.2px; text-align: center; text-indent: -14.2px; font: 12.0px &#39;Times New Roman&#39;; color: #000000&quot;&gt;&lt;b&gt;No:&lt;span class=&quot;Apple-converted-space&quot;&gt;&amp;nbsp;&lt;/span&gt;&lt;/b&gt;&lt;b&gt;&lt;/b&gt;&lt;/p&gt;&#xa;&lt;/td&gt;&#xa;&lt;/tr&gt;&#xa;&lt;tr&gt;&#xa;&lt;td colspan=&quot;4&quot; valign=&quot;top&quot; style=&quot;width: 481.0px; height: 29.0px; border-style: solid; border-width: 1.0px 1.0px 1.0px 1.0px; border-color: #000000 #000000 #000000 #000000; padding: 4.0px 4.0px 4.0px 4.0px&quot;&gt;&#xa;&lt;p style=&quot;margin: 0.0px 0.0px 0.0px 14.2px; text-align: justify; text-indent: -14.2px; font: 12.0px &#39;Times New Roman&#39;; color: #000000&quot;&gt;Studen’s ID : 29214664939&lt;/p&gt;&#xa;&lt;p style=&quot;margin: 0.0px 0.0px 0.0px 14.2px; text-align: justify; text-indent: -14.2px; font: 12.0px &#39;Times New Roman&#39;; color: #000000&quot;&gt;&lt;span class=&quot;Apple-converted-space&quot;&gt;&amp;nbsp;&amp;nbsp; &amp;nbsp; &amp;nbsp; &amp;nbsp; &amp;nbsp; &amp;nbsp; &amp;nbsp; &amp;nbsp; &amp;nbsp; &amp;nbsp; &amp;nbsp; &amp;nbsp; &amp;nbsp; &amp;nbsp; &amp;nbsp; &amp;nbsp; &amp;nbsp; &amp;nbsp; &amp;nbsp; &amp;nbsp; &amp;nbsp; &amp;nbsp; &amp;nbsp; &amp;nbsp; &amp;nbsp; &amp;nbsp; &amp;nbsp; &amp;nbsp; &amp;nbsp; &amp;nbsp; &amp;nbsp; &amp;nbsp; &amp;nbsp; &amp;nbsp; &amp;nbsp; &amp;nbsp; &amp;nbsp; &amp;nbsp; &amp;nbsp; &amp;nbsp; &amp;nbsp; &amp;nbsp; &lt;/span&gt;Studen’s name : Trần Duy Thanh Vũ&lt;/p&gt;&#xa;&lt;/td&gt;&#xa;&lt;/tr&gt;&#xa;&lt;tr&gt;&#xa;&lt;td valign=&quot;top&quot; style=&quot;width: 131.0px; height: 89.0px; border-style: solid; border-width: 1.0px 1.0px 1.0px 1.0px; border-color: #000000 #000000 #000000 #000000; padding: 4.0px 4.0px 4.0px 4.0px&quot;&gt;&#xa;&lt;p style=&quot;margin: 0.0px 0.0px 0.0px 14.2px; text-align: center; text-indent: -14.2px; font: 12.0px &#39;Times New Roman&#39;; color: #000000&quot;&gt;&lt;span style=&quot;text-decoration: underline&quot;&gt;&lt;b&gt;Total marks&lt;/b&gt;&lt;b&gt;&lt;/b&gt;&lt;/span&gt;&lt;/p&gt;&#xa;&lt;/td&gt;&#xa;&lt;td valign=&quot;top&quot; style=&quot;width: 178.0px; height: 89.0px; border-style: solid; border-width: 1.0px 1.0px 1.0px 1.0px; border-color: #000000 #000000 #000000 #000000; padding: 4.0px 4.0px 4.0px 4.0px&quot;&gt;&#xa;&lt;p style=&quot;margin: 0.0px 0.0px 0.0px 14.2px; text-align: center; text-indent: -14.2px; font: 12.0px &#39;Times New Roman&#39;; color: #000000&quot;&gt;&lt;span style=&quot;text-decoration: underline&quot;&gt;&lt;b&gt;Examiner (Giám Khảo)&lt;/b&gt;&lt;b&gt;&lt;/b&gt;&lt;/span&gt;&lt;/p&gt;&#xa;&lt;/td&gt;&#xa;&lt;td colspan=&quot;2&quot; valign=&quot;top&quot; style=&quot;width: 154.0px; height: 89.0px; border-style: solid; border-width: 1.0px 1.0px 1.0px 1.0px; border-color: #000000 #000000 #000000 #000000; padding: 4.0px 4.0px 4.0px 4.0px&quot;&gt;&#xa;&lt;p style=&quot;margin: 0.0px 0.0px 0.0px 14.2px; text-align: center; text-indent: -14.2px; font: 12.0px &#39;Times New Roman&#39;; color: #000000&quot;&gt;&lt;span style=&quot;text-decoration: underline&quot;&gt;&lt;b&gt;Supervisor (Giám Thị)&lt;/b&gt;&lt;/span&gt;&lt;/p&gt;&#xa;&lt;p style=&quot;margin: 0.0px 0.0px 0.0px 14.2px; text-align: center; text-indent: -14.2px; font: 12.0px &#39;Times New Roman&#39;; color: #000000; min-height: 15.0px&quot;&gt;&lt;span style=&quot;text-decoration: underline&quot;&gt;&lt;b&gt;&lt;/b&gt;&lt;/span&gt;&lt;br&gt;&lt;/p&gt;&#xa;&lt;p style=&quot;margin: 0.0px 0.0px 0.0px 14.2px; text-align: center; text-indent: -14.2px; font: 12.0px &#39;Times New Roman&#39;; color: #000000; min-height: 15.0px&quot;&gt;&lt;span style=&quot;text-decoration: underline&quot;&gt;&lt;b&gt;&lt;/b&gt;&lt;/span&gt;&lt;br&gt;&lt;/p&gt;&#xa;&lt;p style=&quot;margin: 0.0px 0.0px 0.0px 14.2px; text-align: center; text-indent: -14.2px; font: 12.0px &#39;Times New Roman&#39;; color: #000000; min-height: 15.0px&quot;&gt;&lt;span style=&quot;text-decoration: underline&quot;&gt;&lt;b&gt;&lt;/b&gt;&lt;/span&gt;&lt;br&gt;&lt;/p&gt;&#xa;&lt;p style=&quot;margin: 0.0px 0.0px 0.0px 14.2px; text-align: center; text-indent: -14.2px; font: 12.0px &#39;Times New Roman&#39;; color: #000000; min-height: 15.0px&quot;&gt;&lt;span style=&quot;text-decoration: underline&quot;&gt;&lt;b&gt;&lt;/b&gt;&lt;/span&gt;&lt;br&gt;&lt;/p&gt;&#xa;&lt;p style=&quot;margin: 0.0px 0.0px 0.0px 0.0px; font: 12.0px Helvetica; min-height: 14.0px&quot;&gt;&lt;br&gt;&lt;/p&gt;&#xa;&lt;/td&gt;&#xa;&lt;/tr&gt;&#xa;&lt;/tbody&gt;&#xa;&lt;/table&gt;&#xa;&lt;p style=&quot;margin: 0.0px 0.0px 12.0px 0.0px; font: 12.0px Times; color: #000000&quot;&gt;These are some common problems that can be encountered during the development and use of a Tic-Tac-Toe system. These problems can often be fixed by carefully examining the conditions, events, and user interface in the application&#39;s source code.&lt;/p&gt;&#xa;&lt;table cellspacing=&quot;0&quot; cellpadding=&quot;0&quot; style=&quot;border-collapse: collapse&quot;&gt;&#xa;&lt;tbody&gt;&#xa;&lt;tr&gt;&#xa;&lt;td valign=&quot;middle&quot; style=&quot;width: 118.0px; height: 14.0px; border-style: solid; border-width: 1.0px 1.0px 1.0px 1.0px; border-color: #000000 #000000 #000000 #000000; padding: 4.0px 4.0px 4.0px 4.0px&quot;&gt;&#xa;&lt;p style=&quot;margin: 0.0px 0.0px 0.0px 0.0px; font: 12.0px &#39;Times New Roman&#39;; color: #000000&quot;&gt;&lt;b&gt;Criteria&lt;/b&gt;&lt;b&gt;&lt;/b&gt;&lt;/p&gt;&#xa;&lt;/td&gt;&#xa;&lt;td valign=&quot;middle&quot; style=&quot;width: 54.0px; height: 14.0px; border-style: solid; border-width: 1.0px 1.0px 1.0px 1.0px; border-color: #000000 #000000 #000000 #000000; padding: 4.0px 4.0px 4.0px 4.0px&quot;&gt;&#xa;&lt;p style=&quot;margin: 0.0px 0.0px 0.0px 0.0px; font: 12.0px &#39;Times New Roman&#39;; color: #000000&quot;&gt;&lt;b&gt;Points&lt;/b&gt;&lt;b&gt;&lt;/b&gt;&lt;/p&gt;&#xa;&lt;/td&gt;&#xa;&lt;/tr&gt;&#xa;&lt;tr&gt;&#xa;&lt;td valign=&quot;middle&quot; style=&quot;width: 118.0px; height: 35.0px; border-style: solid; border-width: 1.0px 1.0px 1.0px 1.0px; border-color: #000000 #000000 #000000 #000000; padding: 4.0px 4.0px 4.0px 4.0px&quot;&gt;&#xa;&lt;p style=&quot;margin: 0.0px 0.0px 0.0px 0.0px; font: 12.0px &#39;Times New Roman&#39;; color: #000000&quot;&gt;&lt;b&gt;Functionality&lt;/b&gt;&lt;b&gt;&lt;/b&gt;&lt;/p&gt;&#xa;&lt;/td&gt;&#xa;&lt;td valign=&quot;middle&quot; style=&quot;width: 54.0px; height: 35.0px; border-style: solid; border-width: 1.0px 1.0px 1.0px 1.0px; border-color: #000000 #000000 #000000 #000000; padding: 4.0px 4.0px 4.0px 4.0px&quot;&gt;&#xa;&lt;p style=&quot;margin: 0.0px 0.0px 0.0px 0.0px; font: 12.0px Helvetica; min-height: 14.0px&quot;&gt;&lt;br&gt;&lt;/p&gt;&#xa;&lt;/td&gt;&#xa;&lt;/tr&gt;&#xa;&lt;tr&gt;&#xa;&lt;td valign=&quot;middle&quot; style=&quot;width: 118.0px; height: 34.0px; border-style: solid; border-width: 1.0px 1.0px 1.0px 1.0px; border-color: #000000 #000000 #000000 #000000; padding: 4.0px 4.0px 4.0px 4.0px&quot;&gt;&#xa;&lt;p style=&quot;margin: 0.0px 0.0px 0.0px 0.0px; font: 12.0px &#39;Times New Roman&#39;; color: #000000&quot;&gt;&lt;b&gt;Class Structure&lt;/b&gt;&lt;b&gt;&lt;/b&gt;&lt;/p&gt;&#xa;&lt;/td&gt;&#xa;&lt;td valign=&quot;middle&quot; style=&quot;width: 54.0px; height: 34.0px; border-style: solid; border-width: 1.0px 1.0px 1.0px 1.0px; border-color: #000000 #000000 #000000 #000000; padding: 4.0px 4.0px 4.0px 4.0px&quot;&gt;&#xa;&lt;p style=&quot;margin: 0.0px 0.0px 0.0px 0.0px; font: 12.0px Helvetica; min-height: 14.0px&quot;&gt;&lt;br&gt;&lt;/p&gt;&#xa;&lt;/td&gt;&#xa;&lt;/tr&gt;&#xa;&lt;tr&gt;&#xa;&lt;td valign=&quot;middle&quot; style=&quot;width: 118.0px; height: 35.0px; border-style: solid; border-width: 1.0px 1.0px 1.0px 1.0px; border-color: #000000 #000000 #000000 #000000; padding: 4.0px 4.0px 4.0px 4.0px&quot;&gt;&#xa;&lt;p style=&quot;margin: 0.0px 0.0px 0.0px 0.0px; font: 12.0px &#39;Times New Roman&#39;; color: #000000&quot;&gt;&lt;b&gt;Code Quality&lt;/b&gt;&lt;b&gt;&lt;/b&gt;&lt;/p&gt;&#xa;&lt;/td&gt;&#xa;&lt;td valign=&quot;middle&quot; style=&quot;width: 54.0px; height: 35.0px; border-style: solid; border-width: 1.0px 1.0px 1.0px 1.0px; border-color: #000000 #000000 #000000 #000000; padding: 4.0px 4.0px 4.0px 4.0px&quot;&gt;&#xa;&lt;p style=&quot;margin: 0.0px 0.0px 0.0px 0.0px; font: 12.0px Helvetica; min-height: 14.0px&quot;&gt;&lt;br&gt;&lt;/p&gt;&#xa;&lt;/td&gt;&#xa;&lt;/tr&gt;&#xa;&lt;tr&gt;&#xa;&lt;td valign=&quot;middle&quot; style=&quot;width: 118.0px; height: 34.0px; border-style: solid; border-width: 1.0px 1.0px 1.0px 1.0px; border-color: #000000 #000000 #000000 #000000; padding: 4.0px 4.0px 4.0px 4.0px&quot;&gt;&#xa;&lt;p style=&quot;margin: 0.0px 0.0px 0.0px 0.0px; font: 12.0px &#39;Times New Roman&#39;; color: #000000&quot;&gt;&lt;b&gt;Documentation&lt;/b&gt;&lt;b&gt;&lt;/b&gt;&lt;/p&gt;&#xa;&lt;/td&gt;&#xa;&lt;td valign=&quot;middle&quot; style=&quot;width: 54.0px; height: 34.0px; border-style: solid; border-width: 1.0px 1.0px 1.0px 1.0px; border-color: #000000 #000000 #000000 #000000; padding: 4.0px 4.0px 4.0px 4.0px&quot;&gt;&#xa;&lt;p style=&quot;margin: 0.0px 0.0px 0.0px 0.0px; font: 12.0px Helvetica; min-height: 14.0px&quot;&gt;&lt;br&gt;&lt;/p&gt;&#xa;&lt;/td&gt;&#xa;&lt;/tr&gt;&#xa;&lt;tr&gt;&#xa;&lt;td valign=&quot;middle&quot; style=&quot;width: 118.0px; height: 35.0px; border-style: solid; border-width: 1.0px 1.0px 1.0px 1.0px; border-color: #000000 #000000 #000000 #000000; padding: 4.0px 4.0px 4.0px 4.0px&quot;&gt;&#xa;&lt;p style=&quot;margin: 0.0px 0.0px 0.0px 0.0px; font: 12.0px &#39;Times New Roman&#39;; color: #000000&quot;&gt;&lt;b&gt;User Interface&lt;/b&gt;&lt;b&gt;&lt;/b&gt;&lt;/p&gt;&#xa;&lt;/td&gt;&#xa;&lt;td valign=&quot;middle&quot; style=&quot;width: 54.0px; height: 35.0px; border-style: solid; border-width: 1.0px 1.0px 1.0px 1.0px; border-color: #000000 #000000 #000000 #000000; padding: 4.0px 4.0px 4.0px 4.0px&quot;&gt;&#xa;&lt;p style=&quot;margin: 0.0px 0.0px 0.0px 0.0px; font: 12.0px Helvetica; min-height: 14.0px&quot;&gt;&lt;br&gt;&lt;/p&gt;&#xa;&lt;/td&gt;&#xa;&lt;/tr&gt;&#xa;&lt;tr&gt;&#xa;&lt;td valign=&quot;middle&quot; style=&quot;width: 118.0px; height: 34.0px; border-style: solid; border-width: 1.0px 1.0px 1.0px 1.0px; border-color: #000000 #000000 #000000 #000000; padding: 4.0px 4.0px 4.0px 4.0px&quot;&gt;&#xa;&lt;p style=&quot;margin: 0.0px 0.0px 0.0px 0.0px; font: 12.0px &#39;Times New Roman&#39;; color: #000000&quot;&gt;&lt;b&gt;Overall Design&lt;/b&gt;&lt;b&gt;&lt;/b&gt;&lt;/p&gt;&#xa;&lt;/td&gt;&#xa;&lt;td valign=&quot;middle&quot; style=&quot;width: 54.0px; height: 34.0px; border-style: solid; border-width: 1.0px 1.0px 1.0px 1.0px; border-color: #000000 #000000 #000000 #000000; padding: 4.0px 4.0px 4.0px 4.0px&quot;&gt;&#xa;&lt;p style=&quot;margin: 0.0px 0.0px 0.0px 0.0px; font: 12.0px Times; color: #000000; min-height: 14.0px&quot;&gt;&lt;br&gt;&lt;/p&gt;&#xa;&lt;/td&gt;&#xa;&lt;/tr&gt;&#xa;&lt;/tbody&gt;&#xa;&lt;/table&gt;&#xa;&lt;p style=&quot;margin: 0.0px 0.0px 0.0px 0.0px; font: 12.0px &#39;Times New Roman&#39;; color: #000000; min-height: 15.0px&quot;&gt;&lt;br&gt;&lt;/p&gt;&#xa;&lt;p style=&quot;margin: 0.0px 0.0px 0.0px 0.0px; font: 12.0px &#39;Times New Roman&#39;; color: #000000&quot;&gt;&lt;b&gt;Link code (Github): https://github.com/thanhvudev22/TicTacToeGame&lt;/b&gt;&lt;b&gt;&lt;/b&gt;&lt;/p&gt;&#xa;&lt;br class=&quot;Apple-interchange-newline&quot;&gt;" link="&lt;p style=&quot;margin: 0.0px 0.0px 0.0px 0.0px; font: 12.0px &#39;Times New Roman&#39;; color: #000000&quot;&gt;&lt;b&gt;Individual Project&lt;/b&gt;&lt;/p&gt;&#xa;&lt;ol style=&quot;list-style-type: decimal&quot;&gt;&#xa;&lt;li style=&quot;margin: 0.0px 0.0px 0.0px 0.0px; font: 12.0px &#39;Times New Roman&#39;; color: #000000&quot;&gt;&lt;i&gt;&lt;/i&gt;&lt;b&gt;&lt;i&gt;TicTacToe game system&lt;/i&gt;&lt;/b&gt;&lt;i&gt;&lt;br&gt;&#xa;The code you provided is a &lt;/i&gt;&lt;b&gt;&lt;i&gt;Tic-Tac-Toe game&lt;/i&gt;&lt;/b&gt;&lt;i&gt; implemented using &lt;/i&gt;&lt;b&gt;&lt;i&gt;Java Swing&lt;/i&gt;&lt;/b&gt;&lt;i&gt; for the graphical user interface (GUI). It represents a simple desktop application where two players can play Tic-Tac-Toe on a 3x3 grid..&lt;/i&gt;&lt;/li&gt;&#xa;&lt;/ol&gt;&#xa;&lt;p style=&quot;margin: 0.0px 0.0px 0.0px 0.0px; font: 12.0px &#39;Times New Roman&#39;; color: #000000; min-height: 15.0px&quot;&gt;&lt;br&gt;&lt;/p&gt;&#xa;&lt;p style=&quot;margin: 0.0px 0.0px 0.0px 0.0px; font: 12.0px &#39;Times New Roman&#39;; color: #000000&quot;&gt;&lt;b&gt;Introduction&lt;/b&gt;&lt;/p&gt;&#xa;&lt;p style=&quot;margin: 0.0px 0.0px 12.0px 0.0px; font: 12.0px Times; color: #000000&quot;&gt;Tic-Tac-Toe Game System is a simple Tic Tac Toe game for two players, developed in Java with a graphical interface using Swing. The game has a 3x3 board, players take turns marking &quot;X&quot; and &quot;O&quot; in the empty boxes. The goal is to line up three consecutive marks horizontally, vertically or diagonally.&lt;/p&gt;&#xa;&lt;table cellspacing=&quot;0&quot; cellpadding=&quot;0&quot; style=&quot;border-collapse: collapse&quot;&gt;&#xa;&lt;tbody&gt;&#xa;&lt;tr&gt;&#xa;&lt;td valign=&quot;top&quot; style=&quot;width: 131.0px; height: 74.0px; border-style: solid; border-width: 1.0px 1.0px 1.0px 1.0px; border-color: #000000 #000000 #000000 #000000; padding: 4.0px 4.0px 4.0px 4.0px&quot;&gt;&#xa;&lt;p style=&quot;margin: 0.0px 0.0px 0.0px 14.2px; text-align: center; text-indent: -14.2px; font: 12.0px &#39;Times New Roman&#39;; color: #000000&quot;&gt;&lt;b&gt;Duy Tan University&lt;/b&gt;&lt;/p&gt;&#xa;&lt;p style=&quot;margin: 0.0px 0.0px 0.0px 14.2px; text-align: center; text-indent: -14.2px; font: 12.0px &#39;Times New Roman&#39;; color: #000000&quot;&gt;International School&lt;/p&gt;&#xa;&lt;p style=&quot;margin: 0.0px 0.0px 0.0px 14.2px; text-align: center; text-indent: -14.2px; font: 12.0px &#39;Times New Roman&#39;; color: #000000&quot;&gt;SE-MIS Program&lt;/p&gt;&#xa;&lt;p style=&quot;margin: 0.0px 0.0px 0.0px 0.0px; font: 12.0px Helvetica; min-height: 14.0px&quot;&gt;&lt;br&gt;&lt;/p&gt;&#xa;&lt;/td&gt;&#xa;&lt;td colspan=&quot;2&quot; valign=&quot;top&quot; style=&quot;width: 280.0px; height: 74.0px; border-style: solid; border-width: 1.0px 1.0px 1.0px 1.0px; border-color: #000000 #000000 #000000 #000000; padding: 4.0px 4.0px 4.0px 4.0px&quot;&gt;&#xa;&lt;p style=&quot;margin: 0.0px 0.0px 0.0px 14.2px; text-indent: -14.2px; font: 12.0px &#39;Times New Roman&#39;; color: #000000&quot;&gt;&lt;b&gt;INDIVIDUAL PROJECT&lt;/b&gt;&lt;/p&gt;&#xa;&lt;p style=&quot;margin: 0.0px 0.0px 0.0px 14.2px; text-indent: -14.2px; font: 12.0px &#39;Times New Roman&#39;; color: #000000&quot;&gt;&lt;b&gt;Course: FUNDAMENTALS OF COMPUTING 1&lt;span class=&quot;Apple-converted-space&quot;&gt;&amp;nbsp;&lt;/span&gt;&lt;/b&gt;&lt;/p&gt;&#xa;&lt;p style=&quot;margin: 0.0px 0.0px 0.0px 14.2px; text-indent: -14.2px; font: 12.0px &#39;Times New Roman&#39;; color: #000000&quot;&gt;Class: BIS, FIS&lt;/p&gt;&#xa;&lt;p style=&quot;margin: 0.0px 0.0px 0.0px 14.2px; text-indent: -14.2px; font: 12.0px &#39;Times New Roman&#39;; color: #000000&quot;&gt;Semester …I…….. Academic Year: 2023-2024&lt;/p&gt;&#xa;&lt;p style=&quot;margin: 0.0px 0.0px 0.0px 14.2px; text-indent: -14.2px; font: 12.0px &#39;Times New Roman&#39;; color: #000000&quot;&gt;Duration:&lt;span class=&quot;Apple-converted-space&quot;&gt;&amp;nbsp;&lt;/span&gt;&lt;/p&gt;&#xa;&lt;/td&gt;&#xa;&lt;td valign=&quot;top&quot; style=&quot;width: 52.0px; height: 74.0px; border-style: solid; border-width: 1.0px 1.0px 1.0px 1.0px; border-color: #000000 #000000 #000000 #000000; padding: 4.0px 4.0px 4.0px 4.0px&quot;&gt;&#xa;&lt;p style=&quot;margin: 0.0px 0.0px 0.0px 0.0px; font: 12.0px &#39;Times New Roman&#39;; color: #000000; min-height: 15.0px&quot;&gt;&lt;br&gt;&lt;/p&gt;&#xa;&lt;p style=&quot;margin: 0.0px 0.0px 0.0px 14.2px; text-align: center; text-indent: -14.2px; font: 12.0px &#39;Times New Roman&#39;; color: #000000&quot;&gt;&lt;b&gt;No:&lt;span class=&quot;Apple-converted-space&quot;&gt;&amp;nbsp;&lt;/span&gt;&lt;/b&gt;&lt;b&gt;&lt;/b&gt;&lt;/p&gt;&#xa;&lt;/td&gt;&#xa;&lt;/tr&gt;&#xa;&lt;tr&gt;&#xa;&lt;td colspan=&quot;4&quot; valign=&quot;top&quot; style=&quot;width: 481.0px; height: 29.0px; border-style: solid; border-width: 1.0px 1.0px 1.0px 1.0px; border-color: #000000 #000000 #000000 #000000; padding: 4.0px 4.0px 4.0px 4.0px&quot;&gt;&#xa;&lt;p style=&quot;margin: 0.0px 0.0px 0.0px 14.2px; text-align: justify; text-indent: -14.2px; font: 12.0px &#39;Times New Roman&#39;; color: #000000&quot;&gt;Studen’s ID : 29214664939&lt;/p&gt;&#xa;&lt;p style=&quot;margin: 0.0px 0.0px 0.0px 14.2px; text-align: justify; text-indent: -14.2px; font: 12.0px &#39;Times New Roman&#39;; color: #000000&quot;&gt;&lt;span class=&quot;Apple-converted-space&quot;&gt;&amp;nbsp;&amp;nbsp; &amp;nbsp; &amp;nbsp; &amp;nbsp; &amp;nbsp; &amp;nbsp; &amp;nbsp; &amp;nbsp; &amp;nbsp; &amp;nbsp; &amp;nbsp; &amp;nbsp; &amp;nbsp; &amp;nbsp; &amp;nbsp; &amp;nbsp; &amp;nbsp; &amp;nbsp; &amp;nbsp; &amp;nbsp; &amp;nbsp; &amp;nbsp; &amp;nbsp; &amp;nbsp; &amp;nbsp; &amp;nbsp; &amp;nbsp; &amp;nbsp; &amp;nbsp; &amp;nbsp; &amp;nbsp; &amp;nbsp; &amp;nbsp; &amp;nbsp; &amp;nbsp; &amp;nbsp; &amp;nbsp; &amp;nbsp; &amp;nbsp; &amp;nbsp; &amp;nbsp; &amp;nbsp; &lt;/span&gt;Studen’s name : Trần Duy Thanh Vũ&lt;/p&gt;&#xa;&lt;/td&gt;&#xa;&lt;/tr&gt;&#xa;&lt;tr&gt;&#xa;&lt;td valign=&quot;top&quot; style=&quot;width: 131.0px; height: 89.0px; border-style: solid; border-width: 1.0px 1.0px 1.0px 1.0px; border-color: #000000 #000000 #000000 #000000; padding: 4.0px 4.0px 4.0px 4.0px&quot;&gt;&#xa;&lt;p style=&quot;margin: 0.0px 0.0px 0.0px 14.2px; text-align: center; text-indent: -14.2px; font: 12.0px &#39;Times New Roman&#39;; color: #000000&quot;&gt;&lt;span style=&quot;text-decoration: underline&quot;&gt;&lt;b&gt;Total marks&lt;/b&gt;&lt;b&gt;&lt;/b&gt;&lt;/span&gt;&lt;/p&gt;&#xa;&lt;/td&gt;&#xa;&lt;td valign=&quot;top&quot; style=&quot;width: 178.0px; height: 89.0px; border-style: solid; border-width: 1.0px 1.0px 1.0px 1.0px; border-color: #000000 #000000 #000000 #000000; padding: 4.0px 4.0px 4.0px 4.0px&quot;&gt;&#xa;&lt;p style=&quot;margin: 0.0px 0.0px 0.0px 14.2px; text-align: center; text-indent: -14.2px; font: 12.0px &#39;Times New Roman&#39;; color: #000000&quot;&gt;&lt;span style=&quot;text-decoration: underline&quot;&gt;&lt;b&gt;Examiner (Giám Khảo)&lt;/b&gt;&lt;b&gt;&lt;/b&gt;&lt;/span&gt;&lt;/p&gt;&#xa;&lt;/td&gt;&#xa;&lt;td colspan=&quot;2&quot; valign=&quot;top&quot; style=&quot;width: 154.0px; height: 89.0px; border-style: solid; border-width: 1.0px 1.0px 1.0px 1.0px; border-color: #000000 #000000 #000000 #000000; padding: 4.0px 4.0px 4.0px 4.0px&quot;&gt;&#xa;&lt;p style=&quot;margin: 0.0px 0.0px 0.0px 14.2px; text-align: center; text-indent: -14.2px; font: 12.0px &#39;Times New Roman&#39;; color: #000000&quot;&gt;&lt;span style=&quot;text-decoration: underline&quot;&gt;&lt;b&gt;Supervisor (Giám Thị)&lt;/b&gt;&lt;/span&gt;&lt;/p&gt;&#xa;&lt;p style=&quot;margin: 0.0px 0.0px 0.0px 14.2px; text-align: center; text-indent: -14.2px; font: 12.0px &#39;Times New Roman&#39;; color: #000000; min-height: 15.0px&quot;&gt;&lt;span style=&quot;text-decoration: underline&quot;&gt;&lt;b&gt;&lt;/b&gt;&lt;/span&gt;&lt;br&gt;&lt;/p&gt;&#xa;&lt;p style=&quot;margin: 0.0px 0.0px 0.0px 14.2px; text-align: center; text-indent: -14.2px; font: 12.0px &#39;Times New Roman&#39;; color: #000000; min-height: 15.0px&quot;&gt;&lt;span style=&quot;text-decoration: underline&quot;&gt;&lt;b&gt;&lt;/b&gt;&lt;/span&gt;&lt;br&gt;&lt;/p&gt;&#xa;&lt;p style=&quot;margin: 0.0px 0.0px 0.0px 14.2px; text-align: center; text-indent: -14.2px; font: 12.0px &#39;Times New Roman&#39;; color: #000000; min-height: 15.0px&quot;&gt;&lt;span style=&quot;text-decoration: underline&quot;&gt;&lt;b&gt;&lt;/b&gt;&lt;/span&gt;&lt;br&gt;&lt;/p&gt;&#xa;&lt;p style=&quot;margin: 0.0px 0.0px 0.0px 14.2px; text-align: center; text-indent: -14.2px; font: 12.0px &#39;Times New Roman&#39;; color: #000000; min-height: 15.0px&quot;&gt;&lt;span style=&quot;text-decoration: underline&quot;&gt;&lt;b&gt;&lt;/b&gt;&lt;/span&gt;&lt;br&gt;&lt;/p&gt;&#xa;&lt;p style=&quot;margin: 0.0px 0.0px 0.0px 0.0px; font: 12.0px Helvetica; min-height: 14.0px&quot;&gt;&lt;br&gt;&lt;/p&gt;&#xa;&lt;/td&gt;&#xa;&lt;/tr&gt;&#xa;&lt;/tbody&gt;&#xa;&lt;/table&gt;&#xa;&lt;p style=&quot;margin: 0.0px 0.0px 12.0px 0.0px; font: 12.0px Times; color: #000000&quot;&gt;These are some common problems that can be encountered during the development and use of a Tic-Tac-Toe system. These problems can often be fixed by carefully examining the conditions, events, and user interface in the application&#39;s source code.&lt;/p&gt;&#xa;&lt;table cellspacing=&quot;0&quot; cellpadding=&quot;0&quot; style=&quot;border-collapse: collapse&quot;&gt;&#xa;&lt;tbody&gt;&#xa;&lt;tr&gt;&#xa;&lt;td valign=&quot;middle&quot; style=&quot;width: 118.0px; height: 14.0px; border-style: solid; border-width: 1.0px 1.0px 1.0px 1.0px; border-color: #000000 #000000 #000000 #000000; padding: 4.0px 4.0px 4.0px 4.0px&quot;&gt;&#xa;&lt;p style=&quot;margin: 0.0px 0.0px 0.0px 0.0px; font: 12.0px &#39;Times New Roman&#39;; color: #000000&quot;&gt;&lt;b&gt;Criteria&lt;/b&gt;&lt;b&gt;&lt;/b&gt;&lt;/p&gt;&#xa;&lt;/td&gt;&#xa;&lt;td valign=&quot;middle&quot; style=&quot;width: 54.0px; height: 14.0px; border-style: solid; border-width: 1.0px 1.0px 1.0px 1.0px; border-color: #000000 #000000 #000000 #000000; padding: 4.0px 4.0px 4.0px 4.0px&quot;&gt;&#xa;&lt;p style=&quot;margin: 0.0px 0.0px 0.0px 0.0px; font: 12.0px &#39;Times New Roman&#39;; color: #000000&quot;&gt;&lt;b&gt;Points&lt;/b&gt;&lt;b&gt;&lt;/b&gt;&lt;/p&gt;&#xa;&lt;/td&gt;&#xa;&lt;/tr&gt;&#xa;&lt;tr&gt;&#xa;&lt;td valign=&quot;middle&quot; style=&quot;width: 118.0px; height: 35.0px; border-style: solid; border-width: 1.0px 1.0px 1.0px 1.0px; border-color: #000000 #000000 #000000 #000000; padding: 4.0px 4.0px 4.0px 4.0px&quot;&gt;&#xa;&lt;p style=&quot;margin: 0.0px 0.0px 0.0px 0.0px; font: 12.0px &#39;Times New Roman&#39;; color: #000000&quot;&gt;&lt;b&gt;Functionality&lt;/b&gt;&lt;b&gt;&lt;/b&gt;&lt;/p&gt;&#xa;&lt;/td&gt;&#xa;&lt;td valign=&quot;middle&quot; style=&quot;width: 54.0px; height: 35.0px; border-style: solid; border-width: 1.0px 1.0px 1.0px 1.0px; border-color: #000000 #000000 #000000 #000000; padding: 4.0px 4.0px 4.0px 4.0px&quot;&gt;&#xa;&lt;p style=&quot;margin: 0.0px 0.0px 0.0px 0.0px; font: 12.0px Helvetica; min-height: 14.0px&quot;&gt;&lt;br&gt;&lt;/p&gt;&#xa;&lt;/td&gt;&#xa;&lt;/tr&gt;&#xa;&lt;tr&gt;&#xa;&lt;td valign=&quot;middle&quot; style=&quot;width: 118.0px; height: 34.0px; border-style: solid; border-width: 1.0px 1.0px 1.0px 1.0px; border-color: #000000 #000000 #000000 #000000; padding: 4.0px 4.0px 4.0px 4.0px&quot;&gt;&#xa;&lt;p style=&quot;margin: 0.0px 0.0px 0.0px 0.0px; font: 12.0px &#39;Times New Roman&#39;; color: #000000&quot;&gt;&lt;b&gt;Class Structure&lt;/b&gt;&lt;b&gt;&lt;/b&gt;&lt;/p&gt;&#xa;&lt;/td&gt;&#xa;&lt;td valign=&quot;middle&quot; style=&quot;width: 54.0px; height: 34.0px; border-style: solid; border-width: 1.0px 1.0px 1.0px 1.0px; border-color: #000000 #000000 #000000 #000000; padding: 4.0px 4.0px 4.0px 4.0px&quot;&gt;&#xa;&lt;p style=&quot;margin: 0.0px 0.0px 0.0px 0.0px; font: 12.0px Helvetica; min-height: 14.0px&quot;&gt;&lt;br&gt;&lt;/p&gt;&#xa;&lt;/td&gt;&#xa;&lt;/tr&gt;&#xa;&lt;tr&gt;&#xa;&lt;td valign=&quot;middle&quot; style=&quot;width: 118.0px; height: 35.0px; border-style: solid; border-width: 1.0px 1.0px 1.0px 1.0px; border-color: #000000 #000000 #000000 #000000; padding: 4.0px 4.0px 4.0px 4.0px&quot;&gt;&#xa;&lt;p style=&quot;margin: 0.0px 0.0px 0.0px 0.0px; font: 12.0px &#39;Times New Roman&#39;; color: #000000&quot;&gt;&lt;b&gt;Code Quality&lt;/b&gt;&lt;b&gt;&lt;/b&gt;&lt;/p&gt;&#xa;&lt;/td&gt;&#xa;&lt;td valign=&quot;middle&quot; style=&quot;width: 54.0px; height: 35.0px; border-style: solid; border-width: 1.0px 1.0px 1.0px 1.0px; border-color: #000000 #000000 #000000 #000000; padding: 4.0px 4.0px 4.0px 4.0px&quot;&gt;&#xa;&lt;p style=&quot;margin: 0.0px 0.0px 0.0px 0.0px; font: 12.0px Helvetica; min-height: 14.0px&quot;&gt;&lt;br&gt;&lt;/p&gt;&#xa;&lt;/td&gt;&#xa;&lt;/tr&gt;&#xa;&lt;tr&gt;&#xa;&lt;td valign=&quot;middle&quot; style=&quot;width: 118.0px; height: 34.0px; border-style: solid; border-width: 1.0px 1.0px 1.0px 1.0px; border-color: #000000 #000000 #000000 #000000; padding: 4.0px 4.0px 4.0px 4.0px&quot;&gt;&#xa;&lt;p style=&quot;margin: 0.0px 0.0px 0.0px 0.0px; font: 12.0px &#39;Times New Roman&#39;; color: #000000&quot;&gt;&lt;b&gt;Documentation&lt;/b&gt;&lt;b&gt;&lt;/b&gt;&lt;/p&gt;&#xa;&lt;/td&gt;&#xa;&lt;td valign=&quot;middle&quot; style=&quot;width: 54.0px; height: 34.0px; border-style: solid; border-width: 1.0px 1.0px 1.0px 1.0px; border-color: #000000 #000000 #000000 #000000; padding: 4.0px 4.0px 4.0px 4.0px&quot;&gt;&#xa;&lt;p style=&quot;margin: 0.0px 0.0px 0.0px 0.0px; font: 12.0px Helvetica; min-height: 14.0px&quot;&gt;&lt;br&gt;&lt;/p&gt;&#xa;&lt;/td&gt;&#xa;&lt;/tr&gt;&#xa;&lt;tr&gt;&#xa;&lt;td valign=&quot;middle&quot; style=&quot;width: 118.0px; height: 35.0px; border-style: solid; border-width: 1.0px 1.0px 1.0px 1.0px; border-color: #000000 #000000 #000000 #000000; padding: 4.0px 4.0px 4.0px 4.0px&quot;&gt;&#xa;&lt;p style=&quot;margin: 0.0px 0.0px 0.0px 0.0px; font: 12.0px &#39;Times New Roman&#39;; color: #000000&quot;&gt;&lt;b&gt;User Interface&lt;/b&gt;&lt;b&gt;&lt;/b&gt;&lt;/p&gt;&#xa;&lt;/td&gt;&#xa;&lt;td valign=&quot;middle&quot; style=&quot;width: 54.0px; height: 35.0px; border-style: solid; border-width: 1.0px 1.0px 1.0px 1.0px; border-color: #000000 #000000 #000000 #000000; padding: 4.0px 4.0px 4.0px 4.0px&quot;&gt;&#xa;&lt;p style=&quot;margin: 0.0px 0.0px 0.0px 0.0px; font: 12.0px Helvetica; min-height: 14.0px&quot;&gt;&lt;br&gt;&lt;/p&gt;&#xa;&lt;/td&gt;&#xa;&lt;/tr&gt;&#xa;&lt;tr&gt;&#xa;&lt;td valign=&quot;middle&quot; style=&quot;width: 118.0px; height: 34.0px; border-style: solid; border-width: 1.0px 1.0px 1.0px 1.0px; border-color: #000000 #000000 #000000 #000000; padding: 4.0px 4.0px 4.0px 4.0px&quot;&gt;&#xa;&lt;p style=&quot;margin: 0.0px 0.0px 0.0px 0.0px; font: 12.0px &#39;Times New Roman&#39;; color: #000000&quot;&gt;&lt;b&gt;Overall Design&lt;/b&gt;&lt;b&gt;&lt;/b&gt;&lt;/p&gt;&#xa;&lt;/td&gt;&#xa;&lt;td valign=&quot;middle&quot; style=&quot;width: 54.0px; height: 34.0px; border-style: solid; border-width: 1.0px 1.0px 1.0px 1.0px; border-color: #000000 #000000 #000000 #000000; padding: 4.0px 4.0px 4.0px 4.0px&quot;&gt;&#xa;&lt;p style=&quot;margin: 0.0px 0.0px 0.0px 0.0px; font: 12.0px Times; color: #000000; min-height: 14.0px&quot;&gt;&lt;br&gt;&lt;/p&gt;&#xa;&lt;/td&gt;&#xa;&lt;/tr&gt;&#xa;&lt;/tbody&gt;&#xa;&lt;/table&gt;&#xa;&lt;p style=&quot;margin: 0.0px 0.0px 0.0px 0.0px; font: 12.0px &#39;Times New Roman&#39;; color: #000000; min-height: 15.0px&quot;&gt;&lt;br&gt;&lt;/p&gt;&#xa;&lt;p style=&quot;margin: 0.0px 0.0px 0.0px 0.0px; font: 12.0px &#39;Times New Roman&#39;; color: #000000&quot;&gt;&lt;b&gt;Link code (Github): https://github.com/thanhvudev22/TicTacToeGame&lt;/b&gt;&lt;b&gt;&lt;/b&gt;&lt;/p&gt;&#xa;&lt;br class=&quot;Apple-interchange-newline&quot;&gt;" id="Fa_TKrVUdIfGERUyE_nv-11">
          <mxCell style="text;whiteSpace=wrap;html=1;" vertex="1" parent="1">
            <mxGeometry x="160" y="660" width="560" height="1960" as="geometry" />
          </mxCell>
        </UserObject>
      </root>
    </mxGraphModel>
  </diagram>
</mxfile>
